 
http://addpix.net/viewer.php?file=61460118044384439295.jpg




 
http://www.imdb.com/title/tt2386203/



A detective wanted for murder kidnaps a skilled journalist and holds him captive for a night in a race to reveal and destroy the corruption plaguing his city. 



Directors:
 Jordan Brown, Jonatan Burnett 

Writers:
 Jordan Brown, Jonatan Burnett 

Stars:
 Eric Breker, Cory Rempel, Dalias Blake 

Genres:
  Action |  Thriller 

Country:
 Canada 

Language:
 English 


Captive.2013.720p.WEB-DL.X264-WEBiOS
 
http://www.imdb.com/title/tt2386203/

 Genre................: Action | Thriller
 Runtime..............: 89 mins
 Video................: 1280x532
 Audio................: English DD5.1 Ch 384 kbps
 Source...............: iTunes (US)
 Subs.................: English



Format                                   : Matroska
Format version                           : Version 2
File size                                : 2.03 GiB
Duration                                 : 1h 28mn
Overall bit rate                         : 3 305 Kbps
Encoded date                             : UTC 2013-05-19 13:04:33
Writing application                      : mkvmerge v5.8.0 ('No Sleep / Pillow') built on Sep  2 2012 15:37:04
Writing library                          : libebml v1.2.3 + libmatroska v1.3.0

Video
ID                                       : 1
Format                                   : AVC
Format/Info                              : Advanced Video Codec
Format profile                           : High@L4.1
Format settings, CABAC                   : Yes
Format settings, ReFrames                : 8 frames
Codec ID                                 : V_MPEG4/ISO/AVC
Duration                                 : 1h 28mn
Bit rate                                 : 2 856 Kbps
Nominal bit rate                         : 3 000 Kbps
Width                                    : 1 280 pixels
Height                                   : 532 pixels
Display aspect ratio                     : 2.40:1
Frame rate                               : 23.976 fps
Color space                              : YUV
Chroma subsampling                       : 4:2:0
Bit depth                                : 8 bits
Scan type                                : Progressive
Bits/(Pixel*Frame)                       : 0.175
Stream size                              : 1.76 GiB (86%)
Writing library                          : x264 core 130 r2273 b3065e6
Encoding settings                        : cabac=1 / ref=8 / deblock=1:0:0 / analyse=0x3:0x133 / me=umh / subme=9 / psy=1 / psy_rd=1.00:0.00 / mixed_ref=1 / me_range=16 / chroma_me=1 / trellis=2 / 8x8dct=1 / cqm=0 / deadzone=21,11 / fast_pskip=1 / chroma_qp_offset=-2 / threads=16 / lookahead_threads=1 / sliced_threads=0 / nr=0 / decimate=1 / interlaced=0 / bluray_compat=0 / constrained_intra=0 / bframes=3 / b_pyramid=2 / b_adapt=2 / b_bias=0 / direct=3 / weightb=1 / open_gop=0 / weightp=2 / keyint=240 / keyint_min=23 / scenecut=40 / intra_refresh=0 / rc_lookahead=60 / rc=abr / mbtree=1 / bitrate=3000 / ratetol=1.0 / qcomp=0.60 / qpmin=0 / qpmax=69 / qpstep=4 / ip_ratio=1.40 / aq=1:1.00
Language                                 : English
Default                                  : Yes
Forced                                   : No

Audio
ID                                       : 2
Format                                   : AC-3
Format/Info                              : Audio Coding 3
Mode extension                           : CM (complete main)
Format settings, Endianness              : Big
Codec ID                                 : A_AC3
Duration                                 : 1h 28mn
Bit rate mode                            : Constant
Bit rate                                 : 384 Kbps
Channel(s)                               : 6 channels
Channel positions                        : Front: L C R, Side: L R, LFE
Sampling rate                            : 48.0 KHz
Bit depth                                : 16 bits
Compression mode                         : Lossy
Stream size                              : 242 MiB (12%)
Language                                 : English
Default                                  : Yes
Forced                                   : No

Text
ID                                       : 3
Format                                   : UTF-8
Codec ID                                 : S_TEXT/UTF8
Codec ID/Info                            : UTF-8 Plain Text
Language                                 : English
Default                                  : No
Forced                                   : No

Menu
00:00:00.000                             : en:Chapter 01
00:08:19.000                             : en:Chapter 02
00:19:31.000                             : en:Chapter 03
00:28:03.000                             : en:Chapter 04
00:36:19.000                             : en:Chapter 05
00:44:42.000                             : en:Chapter 06
00:53:30.000                             : en:Chapter 07
01:05:17.000                             : en:Chapter 08
01:16:57.000                             : en:Chapter 09
01:24:22.000                             : en:Chapter 10



screens



    	http://addpix.net/viewer.php?file=11011911064047379940.jpg
    	http://addpix.net/viewer.php?file=05118435982449473675.jpg
    	http://addpix.net/viewer.php?file=56686380402847439788.jpg
    	http://addpix.net/viewer.php?file=36219183924772816220.jpg
    	http://addpix.net/viewer.php?file=82670184596938600754.jpg
    	http://addpix.net/viewer.php?file=47560317184381548251.jpg